<?xml version="1.0" standalone="no"?>
<!DOCTYPE svg PUBLIC "-//W3C//DTD SVG 20010904//EN"
 "http://www.w3.org/TR/2001/REC-SVG-20010904/DTD/svg10.dtd">
<svg version="1.0" xmlns="http://www.w3.org/2000/svg"
 width="128.000000pt" height="128.000000pt" viewBox="0 0 128.000000 128.000000"
 preserveAspectRatio="xMidYMid meet">

<g transform="translate(0.000000,128.000000) scale(0.100000,-0.100000)"
fill="#000000" stroke="none">
<path d="M771 1263 c-15 -12 -27 -41 -37 -88 -17 -76 -73 -201 -108 -237 -11
-13 -63 -38 -113 -57 -107 -38 -104 -31 -79 -161 21 -106 2 -168 -78 -264 -23
-27 -26 -28 -55 -16 -27 11 -35 10 -57 -5 -23 -15 -26 -22 -21 -56 5 -36 2
-41 -41 -79 -109 -96 -104 -89 -98 -134 4 -23 7 -61 9 -84 2 -45 31 -82 64
-82 19 0 395 130 407 141 5 4 6 15 3 23 -5 13 -40 4 -208 -55 -182 -63 -204
-68 -218 -54 -13 13 -13 17 -1 29 24 22 772 278 783 267 5 -5 7 -17 5 -27 -2
-13 -41 -31 -151 -69 -156 -54 -176 -65 -155 -83 10 -7 43 0 128 29 223 77
247 88 260 119 13 31 4 59 -28 82 -9 7 -18 26 -20 42 -4 32 -21 67 -52 106
-17 21 -109 259 -110 283 0 4 45 7 100 7 87 0 103 3 120 20 11 11 20 32 20 46
0 14 11 39 25 56 14 16 25 40 25 54 0 13 9 33 20 44 11 11 20 33 20 49 0 21 6
32 20 36 51 16 67 78 30 115 -18 18 -31 20 -98 18 -60 -2 -77 -6 -77 -18 0
-12 17 -16 75 -20 72 -5 75 -6 75 -30 l0 -25 -156 -3 -155 -2 -23 -73 c-29
-89 -94 -216 -126 -247 -25 -24 -55 -21 -55 5 0 8 22 53 48 99 45 78 59 114
91 233 l12 42 82 3 c65 2 82 6 82 18 0 24 -154 27 -184 3z m329 -134 c0 -6 -5
-19 -10 -30 -10 -17 -22 -19 -120 -19 -115 0 -120 2 -104 44 5 13 25 16 120
16 74 0 114 -4 114 -11z m-52 -116 l-3 -28 -112 -3 c-62 -1 -113 -1 -113 2 0
3 4 16 10 30 9 26 11 26 115 26 l106 0 -3 -27z m-38 -84 c0 -6 -5 -19 -10 -30
-10 -17 -22 -19 -125 -19 l-114 0 17 30 17 30 108 0 c69 0 107 -4 107 -11z
m-410 -84 c0 -24 46 -48 79 -42 19 4 31 2 34 -7 7 -18 -222 -93 -233 -76 -8
14 -23 91 -18 96 8 8 105 43 121 43 9 1 17 -6 17 -14z m153 -158 c13 -40 17
-90 17 -191 l0 -136 -26 -10 c-14 -6 -27 -10 -30 -10 -2 0 -4 90 -4 200 0 159
3 200 13 200 7 0 21 -24 30 -53z m-83 -166 l0 -200 -52 -19 c-120 -43 -218
-75 -221 -71 -2 2 -15 37 -30 78 l-25 75 44 50 c56 64 94 139 94 187 l0 36 83
31 c45 17 88 31 95 31 9 1 12 -45 12 -198z m180 59 c11 -25 32 -60 45 -79 24
-33 42 -78 34 -86 -2 -2 -28 -13 -56 -24 l-53 -21 -1 53 c0 28 -2 95 -4 147
-3 63 -1 88 5 75 6 -11 19 -40 30 -65z m-525 -277 c31 -86 32 -91 15 -96 -16
-4 -24 9 -50 87 -35 106 -35 109 -14 104 10 -2 28 -37 49 -95z m-46 -108 c1
-14 -134 -59 -148 -51 -6 4 -11 18 -11 31 0 16 18 37 63 73 l62 50 17 -46 c9
-26 17 -52 17 -57z"/>
</g>
</svg>
